<!-- Generator: Adobe Illustrator 17.0.0, SVG Export Plug-In  -->
<svg version="1.1"
	 xmlns="http://www.w3.org/2000/svg" xmlns:xlink="http://www.w3.org/1999/xlink" xmlns:a="http://ns.adobe.com/AdobeSVGViewerExtensions/3.0/"
	 x="0px" y="0px" width="230.307px" height="90.781px" viewBox="0 0 230.307 90.781" enable-background="new 0 0 230.307 90.781"
	 xml:space="preserve">
<defs>
</defs>
<path fill="#4C636B" d="M84.644,62.578H62.061c-2.385-0.637-5.262-1.34-4.796-6.73l1.3-6.342h20.304
	c2.807,0,5.403-1.094,7.792-3.286c1.205-1.094,2.193-2.307,2.964-3.629c0.768-1.325,1.3-2.762,1.595-4.314l0.661-3.744
	c0.582-3.104,0.085-5.754-1.492-7.946c-1.561-2.189-3.742-3.286-6.546-3.286H63.537c-2.832,0-5.457,1.097-7.874,3.286
	c-2.404,2.192-3.896,4.841-4.475,7.946l-4.226,22.461c-0.579,3.104-0.082,5.754,1.492,7.946c1.589,2.116,3.798,3.18,6.631,3.195
	h28.76c1.145-0.015,2.074-1.04,2.178-2.416C86.23,64.455,85.818,62.578,84.644,62.578z M59.811,41.706l1.149-7.203
	c0.648-2.822,2.086-5.611,6.936-5.66h11.008c2.99-0.118,3.046,2.753,2.861,4.081l-1.548,8.258c-0.488,1.952-1.526,2.716-2.883,2.716
	H61.278h-1.879L59.811,41.706z"/>
<path fill="#4C636B" d="M43.372,61.932L29.144,33.423L52.322,4.778c0.714-0.894,0.683-2.225-0.041-3.22
	c-0.019-0.082-0.047-0.158-0.091-0.221c-0.054-0.082-0.138-0.133-0.223-0.185c-0.768-0.916-2.134-1.637-2.857-0.746L24.043,31.429
	L14.31,42.958l7.203-38.222c0.249-1.291-0.164-2.265-1.24-2.919c-0.843-0.546-1.891-0.822-3.147-0.822
	c-1.158-0.012-2.319,0.291-3.477,0.912c-1.312,0.715-2.083,1.658-2.319,2.828L0.07,64.485c-0.249,1.17,0.167,2.113,1.243,2.828
	c0.897,0.624,1.916,0.928,3.062,0.912c1.243,0,2.401-0.273,3.477-0.822c1.337-0.652,2.14-1.625,2.401-2.919l1.866-10.025
	l10.517-12.996c3.147,5.884,12.994,24.34,13.201,25.12c0.368,0.549,0.831,0.958,1.388,1.234c0.554,0.273,1.224,0.409,2.008,0.409
	c2.662-0.015,4.207-1.079,4.635-3.192c0.085-0.506,0.085-1.022,0-1.552C43.787,62.954,43.62,62.439,43.372,61.932z"/>
<path fill="#4C636B" d="M228.874,23.259l-12.84,0.042h-2.521c-2.832,0-5.457,1.097-7.874,3.286c-2.108,1.925-3.515,4.199-4.22,6.827
	c-0.101,0.23-0.176,0.47-0.227,0.722l-5.838,30.052c-0.249,1.173,0.167,2.116,1.243,2.831c0.897,0.625,1.92,0.928,3.068,0.913
	c1.243,0,2.401-0.273,3.481-0.822c1.341-0.655,2.14-1.628,2.404-2.922l5.554-30.361c0.73-2.577,2.304-4.938,6.763-4.984l5.293-0.027
	h4.912c1.145-0.015,2.074-1.04,2.181-2.416C230.464,25.135,230.048,23.259,228.874,23.259z"/>
<path fill="#4C636B" d="M156.136,1.844c-0.843-0.549-1.891-0.822-3.15-0.822c-1.161-0.015-2.319,0.288-3.48,0.913
	c-1.312,0.715-2.086,1.658-2.319,2.831l-11.272,59.716c-0.123,0.591-0.066,1.122,0.164,1.589c0.233,0.464,0.62,0.879,1.161,1.243
	c0.9,0.624,1.92,0.928,3.068,0.912c1.256,0,2.389-0.273,3.396-0.822c0.702-0.321,1.249-0.728,1.64-1.222
	c0.39-0.491,0.645-1.058,0.765-1.701l11.272-59.716C157.628,3.472,157.212,2.498,156.136,1.844z"/>
<path fill="#4C636B" d="M137.025,30.401c-0.274-1.325-0.806-2.534-1.595-3.629c-1.561-2.192-3.745-3.289-6.549-3.289h-20.304
	c-2.832,0-5.457,1.097-7.874,3.289c-1.199,1.094-2.159,2.304-2.883,3.629c-0.721,1.325-1.224,2.762-1.511,4.314l-9.863,52.322
	c-0.249,1.17,0.164,2.113,1.243,2.831c0.897,0.621,1.92,0.928,3.065,0.912c1.243,0,2.404-0.276,3.48-0.822
	c1.341-0.655,2.143-1.631,2.404-2.922l3.481-18.72h20.307c2.804-0.015,5.4-1.079,7.789-3.195c1.205-1.097,2.193-2.307,2.964-3.629
	c0.771-1.325,1.3-2.762,1.595-4.314l4.226-22.464C137.289,33.163,137.295,31.726,137.025,30.401z M127.326,32.923l-4.821,27.06
	c-0.488,1.952-1.529,2.716-2.883,2.716h-16.059h-1.876l0.412-2.195l4.421-26.002c0.648-2.822,2.086-5.611,6.936-5.66h11.011
	C127.455,28.725,127.511,31.595,127.326,32.923z"/>
<path fill="#4C636B" d="M196.521,34.533c0.579-3.104,0.082-5.754-1.485-7.946c-1.555-2.189-3.729-3.286-6.524-3.286h-20.229
	c-2.82,0-5.435,1.097-7.842,3.286c-2.395,2.192-3.88,4.841-4.459,7.946l-4.211,22.461c-0.579,3.104-0.082,5.754,1.485,7.946
	c1.583,2.116,3.786,3.18,6.605,3.195h28.65c1.142-0.015,2.068-1.04,2.171-2.416c0.208-1.264-0.205-3.141-1.375-3.141h-22.494
	c-2.379-0.637-5.243-1.34-4.78-6.73l1.297-6.342h20.229c2.794,0,5.381-1.094,7.76-3.286c1.202-1.094,2.187-2.307,2.952-3.629
	c0.768-1.325,1.297-2.762,1.589-4.314L196.521,34.533z M186.441,32.923l-1.542,8.258c-0.488,1.952-1.523,2.716-2.87,2.716H166.03
	h-1.869l0.412-2.192l1.142-7.203c0.645-2.822,2.08-5.611,6.911-5.66h10.967C186.57,28.725,186.627,31.595,186.441,32.923z"/>
</svg>