<!-- Generator: Adobe Illustrator 17.0.0, SVG Export Plug-In  -->
<svg version="1.1"
	 xmlns="http://www.w3.org/2000/svg" xmlns:xlink="http://www.w3.org/1999/xlink" xmlns:a="http://ns.adobe.com/AdobeSVGViewerExtensions/3.0/"
	 x="0px" y="0px" width="502.606px" height="198.115px" viewBox="0 0 502.606 198.115" enable-background="new 0 0 502.606 198.115"
	 xml:space="preserve">
<defs>
</defs>
<polygon fill="#F8971D" points="54.928,5.664 44.429,62.045 89.933,5.664 "/>
<path fill="#4C636B" d="M184.721,136.566h-49.282c-5.206-1.389-11.483-2.924-10.466-14.687l2.836-13.84h44.31
	c6.126,0,11.792-2.388,17.004-7.172c2.63-2.388,4.787-5.035,6.469-7.919c1.676-2.891,2.836-6.027,3.482-9.414l1.442-8.171
	c1.271-6.775,0.185-12.557-3.255-17.34c-3.406-4.777-8.166-7.172-14.285-7.172h-44.317c-6.181,0-11.909,2.395-17.183,7.172
	c-5.247,4.783-8.502,10.566-9.766,17.34l-9.223,49.017c-1.264,6.775-0.179,12.557,3.255,17.34c3.468,4.618,8.289,6.94,14.47,6.973
	h62.764c2.5-0.033,4.526-2.269,4.752-5.273C188.182,140.661,187.282,136.566,184.721,136.566z M130.528,91.016l2.507-15.719
	c1.415-6.159,4.553-12.246,15.136-12.352h24.023c6.524-0.258,6.648,6.007,6.243,8.905l-3.379,18.022
	c-1.065,4.261-3.331,5.928-6.291,5.928h-35.039h-4.1L130.528,91.016z"/>
<path fill="#4C636B" d="M94.651,135.157L63.603,72.941l50.58-62.513c1.559-1.952,1.49-4.856-0.089-7.026
	c-0.041-0.179-0.103-0.344-0.199-0.483c-0.117-0.179-0.302-0.291-0.488-0.404c-1.676-1.998-4.656-3.573-6.236-1.628l-54.701,67.7
	l-21.242,25.16l15.72-83.413c0.542-2.818-0.357-4.942-2.706-6.371c-1.841-1.191-4.127-1.793-6.868-1.793
	c-2.527-0.026-5.061,0.635-7.589,1.991c-2.864,1.561-4.546,3.619-5.061,6.173L0.152,140.727c-0.543,2.554,0.364,4.611,2.713,6.173
	c1.957,1.363,4.182,2.024,6.682,1.991c2.713,0,5.24-0.595,7.589-1.793c2.919-1.422,4.67-3.546,5.24-6.371l4.073-21.879L49.4,90.486
	c6.868,12.841,28.357,53.119,28.81,54.819c0.804,1.197,1.813,2.091,3.029,2.693c1.209,0.595,2.672,0.893,4.382,0.893
	c5.81-0.033,9.182-2.355,10.116-6.966c0.185-1.105,0.185-2.23,0-3.387C95.558,137.386,95.194,136.262,94.651,135.157z"/>
<path fill="#4C636B" d="M499.479,50.758l-28.02,0.093h-5.501c-6.181,0-11.909,2.395-17.183,7.172
	c-4.601,4.201-7.671,9.163-9.21,14.899c-0.22,0.503-0.385,1.026-0.494,1.575l-12.74,65.583c-0.543,2.56,0.364,4.618,2.713,6.179
	c1.957,1.363,4.189,2.024,6.696,1.991c2.713,0,5.24-0.595,7.596-1.793c2.926-1.429,4.67-3.553,5.247-6.378l12.121-66.258
	c1.593-5.623,5.027-10.777,14.759-10.877l11.551-0.06h10.72c2.5-0.033,4.526-2.269,4.759-5.273
	C502.948,54.853,502.041,50.758,499.479,50.758z"/>
<path fill="#4C636B" d="M340.74,4.023c-1.841-1.197-4.128-1.793-6.875-1.793c-2.534-0.033-5.061,0.629-7.596,1.991
	c-2.864,1.561-4.553,3.619-5.061,6.179l-24.6,130.32c-0.268,1.29-0.144,2.448,0.357,3.467c0.508,1.012,1.353,1.919,2.534,2.713
	c1.964,1.363,4.189,2.024,6.696,1.991c2.74,0,5.213-0.595,7.41-1.793c1.531-0.701,2.727-1.588,3.578-2.666
	c0.852-1.072,1.408-2.309,1.669-3.711l24.6-130.32C343.996,7.576,343.089,5.452,340.74,4.023z"/>
<path fill="#4C636B" d="M299.033,66.345c-0.597-2.891-1.758-5.531-3.482-7.919c-3.406-4.783-8.173-7.178-14.292-7.178h-44.31
	c-6.181,0-11.909,2.395-17.183,7.178c-2.617,2.388-4.711,5.028-6.291,7.919c-1.573,2.891-2.672,6.027-3.296,9.414l-21.523,114.183
	c-0.543,2.554,0.357,4.611,2.713,6.179c1.957,1.356,4.189,2.024,6.689,1.991c2.713,0,5.247-0.602,7.596-1.793
	c2.926-1.429,4.677-3.559,5.247-6.378l7.596-40.853h44.317c6.119-0.033,11.785-2.355,16.997-6.973
	c2.63-2.395,4.787-5.035,6.469-7.919c1.683-2.891,2.836-6.027,3.482-9.414l9.223-49.024
	C299.61,72.372,299.624,69.236,299.033,66.345z M277.867,71.849l-10.521,59.053c-1.064,4.261-3.338,5.928-6.291,5.928h-35.046
	h-4.093l0.9-4.79l9.649-56.744c1.415-6.159,4.553-12.246,15.136-12.352h24.03C278.148,62.686,278.272,68.952,277.867,71.849z"/>
<path fill="#4C636B" d="M428.873,75.362c1.264-6.775,0.179-12.557-3.242-17.34c-3.393-4.777-8.138-7.172-14.237-7.172h-44.145
	c-6.153,0-11.86,2.395-17.114,7.172c-5.226,4.783-8.468,10.566-9.732,17.34l-9.189,49.017c-1.264,6.775-0.179,12.557,3.242,17.34
	c3.454,4.618,8.262,6.94,14.415,6.973h62.523c2.493-0.033,4.512-2.269,4.739-5.273c0.453-2.759-0.446-6.854-3.001-6.854h-49.09
	c-5.192-1.389-11.442-2.924-10.432-14.687l2.829-13.84h44.145c6.098,0,11.744-2.388,16.936-7.172
	c2.623-2.388,4.773-5.035,6.442-7.919c1.676-2.891,2.829-6.027,3.468-9.414L428.873,75.362z M406.876,71.849l-3.365,18.022
	c-1.064,4.261-3.324,5.928-6.263,5.928h-34.915h-4.079l0.9-4.783l2.493-15.719c1.408-6.159,4.539-12.246,15.081-12.352h23.934
	C407.157,62.686,407.281,68.952,406.876,71.849z"/>
</svg>